<svg id="briefcase-line" xmlns="http://www.w3.org/2000/svg" width="58.193" height="50.92" viewBox="0 0 58.193 50.92">
  <defs>
    <style>
      .cls-1 {
        fill: #707070;
      }
    </style>
  </defs>
  <path id="Path_25" data-name="Path 25" class="cls-1" d="M56.556,34.638H5.637V22.491A12.912,12.912,0,0,1,2,19.89V34.638a3.637,3.637,0,0,0,3.637,3.637H56.556a3.637,3.637,0,0,0,3.637-3.637V19.89a12.257,12.257,0,0,1-3.637,2.582Z" transform="translate(-2 12.644)"/>
  <path id="Path_26" data-name="Path 26" class="cls-1" d="M34,27.688a1.819,1.819,0,0,0,1.819-1.819V15.94H32.185v3.746H14v3.637H32.185v2.546A1.819,1.819,0,0,0,34,27.688Z" transform="translate(7.823 9.411)"/>
  <path id="Path_27" data-name="Path 27" class="cls-1" d="M58.375,9.274H42.008V6.328A4.4,4.4,0,0,0,37.553,2H24.641a4.4,4.4,0,0,0-4.455,4.328V9.274H3.819A1.819,1.819,0,0,0,2,11.093V25.641a9.093,9.093,0,0,0,9.093,9.093h5.456V37.28a1.819,1.819,0,1,0,3.637,0V27.351H16.548V31.1H11.093a5.456,5.456,0,0,1-5.456-5.456V12.911H56.556v12.73A5.456,5.456,0,0,1,51.1,31.1H49.282v3.637H51.1a9.093,9.093,0,0,0,9.093-9.093V11.093A1.819,1.819,0,0,0,58.375,9.274Zm-20,0H23.823V6.419a.818.818,0,0,1,.818-.782h12.93a.782.782,0,0,1,.8.764Z" transform="translate(-2 -2)"/>
</svg>
