<svg id="check2-circle" xmlns="http://www.w3.org/2000/svg" width="20.903" height="19.41" viewBox="0 0 20.903 19.41">
  <defs>
    <style>
      .cls-1 {
        fill: #04f;
        fill-rule: evenodd;
      }
    </style>
  </defs>
  <path id="Path_60" data-name="Path 60" class="cls-1" d="M26.329,5.842a.746.746,0,0,1,0,1.057L15.878,17.351a.746.746,0,0,1-1.057,0l-4.479-4.479A.747.747,0,0,1,11.4,11.814l3.951,3.951,9.923-9.924a.747.747,0,0,1,1.057,0Z" transform="translate(-5.645 -4.13)"/>
  <path id="Path_61" data-name="Path 61" class="cls-1" d="M13.079,4.867a8.212,8.212,0,1,0,8.212,8.212.747.747,0,1,1,1.493,0,9.7,9.7,0,1,1-4.853-8.406.747.747,0,1,1-.747,1.291A8.17,8.17,0,0,0,13.079,4.867Z" transform="translate(-3.375 -3.373)"/>
</svg>
