<svg xmlns="http://www.w3.org/2000/svg" width="34.462" height="28" viewBox="0 0 34.462 28">
  <defs>
    <style>
      .cls-1 {
        fill: #f8f8f8;
        fill-rule: evenodd;
      }
    </style>
  </defs>
  <g id="download" transform="translate(0 -2.25)">
    <path id="Path_13" data-name="Path 13" class="cls-1" d="M1.077,18a1.077,1.077,0,0,1,1.077,1.077v7.538a2.154,2.154,0,0,0,2.154,2.154H30.154a2.154,2.154,0,0,0,2.154-2.154V19.077a1.077,1.077,0,1,1,2.154,0v7.538a4.308,4.308,0,0,1-4.308,4.308H4.308A4.308,4.308,0,0,1,0,26.615V19.077A1.077,1.077,0,0,1,1.077,18Z" transform="translate(0 -0.673)"/>
    <path id="Path_14" data-name="Path 14" class="cls-1" d="M11.236,16.861a1.077,1.077,0,0,1,1.523,0L17.7,21.8l4.939-4.939a1.077,1.077,0,1,1,1.523,1.523l-5.7,5.7a1.077,1.077,0,0,1-1.525,0l-5.7-5.7a1.077,1.077,0,0,1,0-1.523Z" transform="translate(-0.467 -0.611)"/>
    <path id="Path_15" data-name="Path 15" class="cls-1" d="M17.952,2.25a1.077,1.077,0,0,1,1.077,1.077V20.558a1.077,1.077,0,0,1-2.154,0V3.327A1.077,1.077,0,0,1,17.952,2.25Z" transform="translate(-0.721)"/>
  </g>
</svg>
