<svg xmlns="http://www.w3.org/2000/svg" width="35.174" height="37.585" viewBox="0 0 35.174 37.585">
  <path id="Icon_feather-github" data-name="Icon feather-github" d="M14.832,31.931C6.381,34.467,6.381,27.705,3,26.86M26.665,37V30.46a5.7,5.7,0,0,0-1.589-4.412c5.308-.592,10.886-2.6,10.886-11.832a9.194,9.194,0,0,0-2.534-6.338,8.57,8.57,0,0,0-.153-6.374s-1.995-.592-6.609,2.5a22.617,22.617,0,0,0-11.832,0c-4.615-3.093-6.609-2.5-6.609-2.5a8.57,8.57,0,0,0-.152,6.373,9.2,9.2,0,0,0-2.535,6.389c0,9.162,5.578,11.173,10.886,11.832a5.7,5.7,0,0,0-1.589,4.361V37" transform="translate(-1.787 -0.417)" fill="none" stroke="#04f" stroke-linecap="round" stroke-linejoin="round" stroke-width="2"/>
</svg>
