<svg id="Icons" xmlns="http://www.w3.org/2000/svg" width="44.979" height="44.979" viewBox="0 0 44.979 44.979">
  <defs>
    <style>
      .cls-1 {
        fill: #f8f8f8;
        fill-rule: evenodd;
      }
    </style>
  </defs>
  <g id="Black" transform="translate(0)">
    <path id="Instagram" class="cls-1" d="M522.489,160c-6.108,0-6.873.026-9.272.135a16.519,16.519,0,0,0-5.459,1.046,11.5,11.5,0,0,0-6.577,6.577,16.5,16.5,0,0,0-1.046,5.459c-.109,2.4-.135,3.164-.135,9.272s.026,6.873.135,9.272a16.519,16.519,0,0,0,1.046,5.459,11.51,11.51,0,0,0,6.577,6.578,16.552,16.552,0,0,0,5.459,1.045c2.4.109,3.164.135,9.272.135s6.873-.026,9.272-.135a16.519,16.519,0,0,0,5.459-1.046,11.51,11.51,0,0,0,6.578-6.577,16.553,16.553,0,0,0,1.045-5.459c.109-2.4.135-3.164.135-9.272s-.026-6.873-.135-9.272a16.52,16.52,0,0,0-1.046-5.459,11.5,11.5,0,0,0-6.577-6.577,16.5,16.5,0,0,0-5.459-1.046c-2.4-.109-3.164-.135-9.272-.135Zm0,4.052c6,0,6.716.023,9.088.131a12.448,12.448,0,0,1,4.176.775,7.438,7.438,0,0,1,4.267,4.268,12.407,12.407,0,0,1,.775,4.176c.108,2.371.131,3.083.131,9.088s-.023,6.716-.131,9.087a12.447,12.447,0,0,1-.775,4.176,7.438,7.438,0,0,1-4.268,4.267,12.405,12.405,0,0,1-4.175.775c-2.371.108-3.083.131-9.088.131s-6.717-.023-9.088-.131a12.448,12.448,0,0,1-4.176-.775,7.438,7.438,0,0,1-4.267-4.268,12.407,12.407,0,0,1-.775-4.175c-.108-2.371-.131-3.083-.131-9.088s.023-6.716.131-9.087a12.449,12.449,0,0,1,.775-4.176,7.438,7.438,0,0,1,4.268-4.267,12.4,12.4,0,0,1,4.175-.775C515.773,164.075,516.485,164.052,522.489,164.052Zm0,6.889a11.548,11.548,0,1,0,11.548,11.548A11.547,11.547,0,0,0,522.489,170.941Zm0,19.045a7.5,7.5,0,1,1,7.5-7.5A7.5,7.5,0,0,1,522.489,189.986Zm14.7-19.5a2.7,2.7,0,1,1-2.7-2.7A2.7,2.7,0,0,1,537.193,170.485Z" transform="translate(-500 -160)"/>
  </g>
</svg>
