<svg xmlns="http://www.w3.org/2000/svg" width="37.77" height="40.123" viewBox="0 0 37.77 40.123">
  <defs>
    <style>
      .cls-1 {
        fill: #04f;
      }
    </style>
  </defs>
  <path id="pen-nib" class="cls-1" d="M38.9,12.911a2.127,2.127,0,0,0-.56-1.55L29.948,2.414a1.858,1.858,0,0,0-1.454-.6,1.884,1.884,0,0,0-1.391.748l-7.2,9.38L9.489,14.209a2.213,2.213,0,0,0-1.6,1.453L1.274,34.245a2.439,2.439,0,0,0,.5,2.467l4.264,4.546a2.086,2.086,0,0,0,2.314.529l17.437-7.051a2.279,2.279,0,0,0,1.357-1.677l2.249-10.982L38.2,14.394a2.1,2.1,0,0,0,.7-1.483ZM24.686,32.26,7.672,39.14,6.62,38.019l7.953-8.479a4.308,4.308,0,0,0,5.752-1.252,5.023,5.023,0,0,0-.332-6.249,4.285,4.285,0,0,0-5.848-.551,4.984,4.984,0,0,0-1.354,6.09l-7.982,8.51L3.756,34.968,10.2,16.841l9.982-2.169,6.648,7.088Zm-9.841-6.886a1.925,1.925,0,1,1,1.922,2.049A1.988,1.988,0,0,1,14.845,25.374Zm13.478-5.893-5.99-6.386,6.305-8.216,7.391,7.88Z" transform="translate(-1.133 -1.815)"/>
</svg>
