<svg xmlns="http://www.w3.org/2000/svg" width="32.397" height="37.01" viewBox="0 0 32.397 37.01">
  <defs>
    <style>
      .cls-1 {
        fill: #f8f8f8;
      }
    </style>
  </defs>
  <path id="arrow-downward-fill" class="cls-1" d="M39.359,27.655a2.314,2.314,0,0,0-3.262-.3l-10.087,8.4V8.314a2.314,2.314,0,0,0-4.627,0V35.753L11.3,27.354a2.316,2.316,0,1,0-2.961,3.563L22.215,42.485l.347.208.3.162a2.314,2.314,0,0,0,1.666,0l.3-.162.347-.208L39.058,30.917a2.314,2.314,0,0,0,.3-3.262Z" transform="translate(39.895 43.01) rotate(180)"/>
</svg>
