<svg xmlns="http://www.w3.org/2000/svg" width="18.778" height="16.437" viewBox="0 0 18.778 16.437">
  <defs>
    <style>
      .cls-1 {
        fill: #04f;
      }
    </style>
  </defs>
  <path id="arrow-downward-fill" class="cls-1" d="M23.663,16.987a1.174,1.174,0,0,0-1.655-.153L16.89,21.1V7.174a1.174,1.174,0,0,0-2.348,0V21.1L9.425,16.834a1.175,1.175,0,1,0-1.5,1.808l7.043,5.869.176.106.153.082a1.174,1.174,0,0,0,.845,0l.153-.082.176-.106,7.043-5.869a1.174,1.174,0,0,0,.153-1.655Z" transform="translate(-6 23.935) rotate(-90)"/>
</svg>
