<svg id="braces" xmlns="http://www.w3.org/2000/svg" width="37.771" height="40.123" viewBox="0 0 37.771 40.123">
  <defs>
    <style>
      .cls-1 {
        fill: #04f;
      }
    </style>
  </defs>
  <path id="Path_16" data-name="Path 16" class="cls-1" d="M5.985,24.834v-.547c3.37-.341,5.02-2.063,5.02-5.366V12.895c0-3.67,1.309-5.159,4.54-5.159h.915V4.5H15.2c-5.4,0-7.952,2.546-7.952,7.888V17.5c0,3.67-1.261,4.883-5,4.883v4.357c3.737,0,5,1.215,5,4.883v5.111c0,5.342,2.546,7.888,7.955,7.888h1.261V41.389h-.915c-3.233,0-4.54-1.489-4.54-5.159V30.2c0-3.3-1.65-5.02-5.02-5.366Zm30.3-.547v.547c-3.37.346-5.02,2.066-5.02,5.366v6.031c0,3.67-1.309,5.159-4.54,5.159h-.915v3.233h1.261c5.409,0,7.955-2.546,7.955-7.888V31.624c0-3.67,1.261-4.883,5-4.883V22.382c-3.737,0-5-1.215-5-4.883V12.388c0-5.342-2.549-7.888-7.955-7.888H25.807V7.733h.915c3.233,0,4.54,1.489,4.54,5.159v6.029C31.262,22.221,32.912,23.941,36.282,24.287Z" transform="translate(-2.25 -4.5)"/>
</svg>
