<svg xmlns="http://www.w3.org/2000/svg" width="32.016" height="32.001" viewBox="0 0 32.016 32.001">
  <path id="briefcase" d="M31.521,7.516H24.628V1.125H9.688V7.516H2.811A1.656,1.656,0,0,0,1.158,9.171v22.3a1.656,1.656,0,0,0,1.653,1.653H31.52a1.656,1.656,0,0,0,1.654-1.654V9.171A1.656,1.656,0,0,0,31.52,7.516Zm-19.7-4.255H22.492V7.516H11.824ZM30.935,9.755v5.36l-3.55,3.55h-9.1V15.547H16.046v3.12h-9.1L3.4,15.116V9.755ZM3.4,30.887v-12.6L6.02,20.905H16.046v3.153h2.239V20.905H28.311l2.623-2.623v12.6Z" transform="translate(-1.158 -1.125)"/>
</svg>
