<svg id="bx-server" xmlns="http://www.w3.org/2000/svg" width="45.067" height="40.561" viewBox="0 0 45.067 40.561">
  <defs>
    <style>
      .cls-1 {
        fill: none;
      }

      .cls-2 {
        fill: #04f;
      }
    </style>
  </defs>
  <path id="Path_17" data-name="Path 17" class="cls-1" d="M6,30.034v9.013H42.058l0-9.013Zm27.04,6.76H28.534V32.287H33.04Zm6.76,0H35.294V32.287H39.8ZM6,7.5v9.013H42.058l0-9.013Zm27.04,6.76H28.534V9.753H33.04Zm6.76,0H35.294V9.753H39.8Z" transform="translate(-1.493 -2.993)"/>
  <path id="Path_18" data-name="Path 18" class="cls-2" d="M43.561,4.5H7.507A4.51,4.51,0,0,0,3,9.007V18.02a4.51,4.51,0,0,0,4.507,4.507H43.561a4.51,4.51,0,0,0,4.507-4.507V9.007A4.51,4.51,0,0,0,43.561,4.5ZM7.507,18.02V9.007H43.561l0,9.013Zm36.054,9.013H7.507A4.51,4.51,0,0,0,3,31.54v9.013a4.51,4.51,0,0,0,4.507,4.507H43.561a4.51,4.51,0,0,0,4.507-4.507V31.54A4.51,4.51,0,0,0,43.561,27.034ZM7.507,40.554V31.54H43.561l0,9.013Z" transform="translate(-3 -4.5)"/>
  <path id="Path_19" data-name="Path 19" class="cls-2" d="M27.76,9h4.507v4.507H27.76ZM21,9h4.507v4.507H21Zm6.76,22.534h4.507V36.04H27.76Zm-6.76,0h4.507V36.04H21Z" transform="translate(6.04 -2.24)"/>
</svg>
