<svg id="calendar" xmlns="http://www.w3.org/2000/svg" width="20" height="20" viewBox="0 0 20 20">
  <defs>
    <style>
      .cls-1 {
        fill: #b8b8b8;
      }
    </style>
  </defs>
  <path id="Path_28" data-name="Path 28" class="cls-1" d="M25.2,25.762H9.2a1.959,1.959,0,0,1-2-1.989V9.189A1.823,1.823,0,0,1,8.867,7.2h1V8.526h-1c-.133,0-.333.265-.333.663V23.773a.628.628,0,0,0,.667.663h16a.628.628,0,0,0,.667-.663V9.189c0-.4-.2-.663-.333-.663h-1V7.2h1A1.823,1.823,0,0,1,27.2,9.189V23.773A1.959,1.959,0,0,1,25.2,25.762Z" transform="translate(-7.2 -5.762)"/>
  <path id="Path_29" data-name="Path 29" class="cls-1" d="M12.239,10.075a.679.679,0,0,1-.719-.719V6.479a.719.719,0,0,1,1.438,0V9.356a.679.679,0,0,1-.719.719Z" transform="translate(-7.543 -5.76)"/>
  <path id="Path_30" data-name="Path 30" class="cls-1" d="M23.759,10.075a.679.679,0,0,1-.719-.719V6.479a.719.719,0,1,1,1.438,0V9.356a.679.679,0,0,1-.719.719Z" transform="translate(-8.456 -5.76)"/>
  <path id="Path_31" data-name="Path 31" class="cls-1" d="M14.4,7.2h7.192V8.638H14.4Z" transform="translate(-7.996 -5.762)"/>
  <path id="Path_32" data-name="Path 32" class="cls-1" d="M8.64,11.52H25.763v1.438H8.64Z" transform="translate(-7.202 -6.217)"/>
  <path id="Path_33" data-name="Path 33" class="cls-1" d="M24.48,14.4h1.438v1.438H24.48Z" transform="translate(-8.795 -6.445)"/>
  <path id="Path_34" data-name="Path 34" class="cls-1" d="M21.6,14.4h1.438v1.438H21.6Z" transform="translate(-8.342 -6.445)"/>
  <path id="Path_35" data-name="Path 35" class="cls-1" d="M18.72,14.4h1.438v1.438H18.72Z" transform="translate(-8.113 -6.445)"/>
  <path id="Path_36" data-name="Path 36" class="cls-1" d="M15.84,14.4h1.438v1.438H15.84Z" transform="translate(-7.885 -6.445)"/>
  <path id="Path_37" data-name="Path 37" class="cls-1" d="M12.96,14.4H14.4v1.438H12.96Z" transform="translate(-7.657 -6.445)"/>
  <path id="Path_38" data-name="Path 38" class="cls-1" d="M24.48,17.28h1.438v1.438H24.48Z" transform="translate(-8.795 -6.673)"/>
  <path id="Path_39" data-name="Path 39" class="cls-1" d="M21.6,17.28h1.438v1.438H21.6Z" transform="translate(-8.342 -6.673)"/>
  <path id="Path_40" data-name="Path 40" class="cls-1" d="M18.72,17.28h1.438v1.438H18.72Z" transform="translate(-8.113 -6.673)"/>
  <path id="Path_41" data-name="Path 41" class="cls-1" d="M15.84,17.28h1.438v1.438H15.84Z" transform="translate(-7.885 -6.673)"/>
  <path id="Path_42" data-name="Path 42" class="cls-1" d="M12.96,17.28H14.4v1.438H12.96Z" transform="translate(-7.657 -6.673)"/>
  <path id="Path_43" data-name="Path 43" class="cls-1" d="M10.08,17.28h1.438v1.438H10.08Z" transform="translate(-7.203 -6.673)"/>
  <path id="Path_44" data-name="Path 44" class="cls-1" d="M24.48,20.16h1.438V21.6H24.48Z" transform="translate(-8.795 -6.902)"/>
  <path id="Path_45" data-name="Path 45" class="cls-1" d="M21.6,20.16h1.438V21.6H21.6Z" transform="translate(-8.342 -6.902)"/>
  <path id="Path_46" data-name="Path 46" class="cls-1" d="M18.72,20.16h1.438V21.6H18.72Z" transform="translate(-8.113 -6.902)"/>
  <path id="Path_47" data-name="Path 47" class="cls-1" d="M15.84,20.16h1.438V21.6H15.84Z" transform="translate(-7.885 -6.902)"/>
  <path id="Path_48" data-name="Path 48" class="cls-1" d="M12.96,20.16H14.4V21.6H12.96Z" transform="translate(-7.657 -6.902)"/>
  <path id="Path_49" data-name="Path 49" class="cls-1" d="M10.08,20.16h1.438V21.6H10.08Z" transform="translate(-7.203 -6.902)"/>
  <path id="Path_50" data-name="Path 50" class="cls-1" d="M21.6,23.04h1.438v1.438H21.6Z" transform="translate(-8.342 -7.355)"/>
  <path id="Path_51" data-name="Path 51" class="cls-1" d="M18.72,23.04h1.438v1.438H18.72Z" transform="translate(-8.113 -7.355)"/>
  <path id="Path_52" data-name="Path 52" class="cls-1" d="M15.84,23.04h1.438v1.438H15.84Z" transform="translate(-7.885 -7.355)"/>
  <path id="Path_53" data-name="Path 53" class="cls-1" d="M12.96,23.04H14.4v1.438H12.96Z" transform="translate(-7.657 -7.355)"/>
  <path id="Path_54" data-name="Path 54" class="cls-1" d="M10.08,23.04h1.438v1.438H10.08Z" transform="translate(-7.203 -7.355)"/>
</svg>
