<svg id="code" xmlns="http://www.w3.org/2000/svg" width="46.586" height="28.67" viewBox="0 0 46.586 28.67">
  <defs>
    <style>
      .cls-1 {
        fill: #04f;
        fill-rule: evenodd;
      }
    </style>
  </defs>
  <path id="Path_55" data-name="Path 55" class="cls-1" d="M18.976,9.525a1.792,1.792,0,0,1,0,2.537L7.7,23.333,18.978,34.607a1.794,1.794,0,1,1-2.537,2.537L3.9,24.6a1.792,1.792,0,0,1,0-2.537L16.441,9.525a1.792,1.792,0,0,1,2.537,0Zm15.379,0a1.792,1.792,0,0,0,0,2.537L45.632,23.333,34.355,34.607a1.794,1.794,0,0,0,2.537,2.537L49.433,24.6a1.792,1.792,0,0,0,0-2.537L36.892,9.525a1.792,1.792,0,0,0-2.537,0Z" transform="translate(-3.373 -8.998)"/>
</svg>
