<svg xmlns="http://www.w3.org/2000/svg" width="22.858" height="32.001" viewBox="0 0 22.858 32.001">
  <g id="document" transform="translate(-6.75 -2.251)">
    <path id="Path_85" data-name="Path 85" d="M29.264,10.594l-8-8a1.037,1.037,0,0,0-.8-.342H9.036A2.292,2.292,0,0,0,6.75,4.537V31.966a2.292,2.292,0,0,0,2.286,2.286H27.322a2.292,2.292,0,0,0,2.286-2.286V11.393a1.039,1.039,0,0,0-.342-.8Zm-8.8-5.6,6.4,6.4h-6.4Zm6.857,26.972H9.036V4.536h9.143v6.857a2.292,2.292,0,0,0,2.286,2.286h6.857Z" transform="translate(0)"/>
    <path id="Path_86" data-name="Path 86" d="M11.25,24.75H24.965v2.286H11.25Z" transform="translate(0.072 0.358)"/>
    <path id="Path_87" data-name="Path 87" d="M11.25,18H24.965v2.286H11.25Z" transform="translate(0.072 0.25)"/>
  </g>
</svg>
