<svg xmlns="http://www.w3.org/2000/svg" width="34.961" height="33.508" viewBox="0 0 34.961 33.508">
  <defs>
    <style>
      .cls-1 {
        fill: none;
        stroke: #04f;
        stroke-linecap: round;
        stroke-linejoin: round;
        stroke-width: 2px;
      }
    </style>
  </defs>
  <path id="linkedin" class="cls-1" d="M7.482,31.508V10.25H.417V31.508ZM3.95,7.345A3.684,3.684,0,1,0,4,0,3.682,3.682,0,1,0,3.9,7.345H3.95Zm7.443,24.163h7.066V19.636a4.837,4.837,0,0,1,.233-1.724,3.868,3.868,0,0,1,3.625-2.584c2.557,0,3.579,1.949,3.579,4.807V31.508h7.066V19.318c0-6.53-3.486-9.568-8.135-9.568a7.037,7.037,0,0,0-6.415,3.581h.048V10.249H11.394c.092,1.995,0,21.258,0,21.258Z" transform="translate(1 1)"/>
</svg>
