<svg id="menu-grid-o" xmlns="http://www.w3.org/2000/svg" width="35" height="35" viewBox="0 0 35 35">
  <defs>
    <style>
      .cls-1 {
        fill: #707070;
      }
    </style>
  </defs>
  <path id="Path_73" data-name="Path 73" class="cls-1" d="M14.75,10.375A4.375,4.375,0,1,1,10.375,6,4.375,4.375,0,0,1,14.75,10.375Z" transform="translate(-6 -6)"/>
  <path id="Path_74" data-name="Path 74" class="cls-1" d="M14.75,19.375A4.375,4.375,0,1,1,10.375,15,4.375,4.375,0,0,1,14.75,19.375Z" transform="translate(-6 -1.875)"/>
  <path id="Path_75" data-name="Path 75" class="cls-1" d="M10.375,32.75A4.375,4.375,0,1,0,6,28.375,4.375,4.375,0,0,0,10.375,32.75Z" transform="translate(-6 2.25)"/>
  <path id="Path_76" data-name="Path 76" class="cls-1" d="M23.75,10.375A4.375,4.375,0,1,1,19.375,6,4.375,4.375,0,0,1,23.75,10.375Z" transform="translate(-1.875 -6)"/>
  <path id="Path_77" data-name="Path 77" class="cls-1" d="M19.375,23.75A4.375,4.375,0,1,0,15,19.375,4.375,4.375,0,0,0,19.375,23.75Z" transform="translate(-1.875 -1.875)"/>
  <path id="Path_78" data-name="Path 78" class="cls-1" d="M23.75,28.375A4.375,4.375,0,1,1,19.375,24,4.375,4.375,0,0,1,23.75,28.375Z" transform="translate(-1.875 2.25)"/>
  <path id="Path_79" data-name="Path 79" class="cls-1" d="M28.375,14.75A4.375,4.375,0,1,0,24,10.375,4.375,4.375,0,0,0,28.375,14.75Z" transform="translate(2.25 -6)"/>
  <path id="Path_80" data-name="Path 80" class="cls-1" d="M32.75,19.375A4.375,4.375,0,1,1,28.375,15,4.375,4.375,0,0,1,32.75,19.375Z" transform="translate(2.25 -1.875)"/>
  <path id="Path_81" data-name="Path 81" class="cls-1" d="M28.375,32.75A4.375,4.375,0,1,0,24,28.375,4.375,4.375,0,0,0,28.375,32.75Z" transform="translate(2.25 2.25)"/>
</svg>
