<svg xmlns="http://www.w3.org/2000/svg" width="53.509" height="44.979" viewBox="0 0 53.509 44.979">
  <defs>
    <style>
      .cls-1 {
        fill: #f8f8f8;
      }
    </style>
  </defs>
  <path id="Path_71" data-name="Path 71" class="cls-1" d="M26.6,19.58H25.573a32.3,32.3,0,0,1-16.189-6.2A34.564,34.564,0,0,1,3.972,8.26,1.972,1.972,0,0,1,6.919,5.64a30.067,30.067,0,0,0,4.776,4.528,28.346,28.346,0,0,0,13.18,5.365,12.11,12.11,0,0,1,3.1-8.28A12.405,12.405,0,0,1,37.823,3,12.049,12.049,0,0,1,45.7,6.26a.884.884,0,0,1,.171.171c.45.5,2.14,2,4.76,0a1.948,1.948,0,1,1,2.357,3.1A7.148,7.148,0,0,1,43,9.066a8.187,8.187,0,0,0-5.35-2.155,8.653,8.653,0,0,0-6.776,2.915,8.249,8.249,0,0,0-1.954,6.9,2.388,2.388,0,0,1-.589,2.171,2.233,2.233,0,0,1-1.737.682ZM17.928,47.972a32.409,32.409,0,0,1-16.173-4.5A2.714,2.714,0,0,1,.437,42.157a1.923,1.923,0,0,1,1.907-2.745,19.988,19.988,0,0,0,10.172-1.721,12.08,12.08,0,0,1-5.055-3.675,1.938,1.938,0,0,1,3.1-2.326c1.551,2.062,5.567,3.241,6.978,3.38a2,2,0,0,1,.93,3.6,23.88,23.88,0,0,1-8.808,4.156,28.051,28.051,0,0,0,17.91-.388A27.245,27.245,0,0,0,45.824,16.385a1.923,1.923,0,0,1,1.923-1.954h0a1.954,1.954,0,0,1,1.938,1.938A31.121,31.121,0,0,1,28.86,46.049a33.8,33.8,0,0,1-10.932,1.923ZM3.569,21.7a15.848,15.848,0,0,0,4.047,3.256,10.42,10.42,0,0,0,5.458,1.814,1.985,1.985,0,0,0,1.938-1.938A1.954,1.954,0,0,0,13.075,22.9h-.76l-.543-.155a1.046,1.046,0,0,1-.543-.2c-.062-.093.31.14,0,0l-.264-.124-.512-.264-.977-.543-.93-.589-.465-.31-.217-.171h0a11.831,11.831,0,0,1-1.551-1.551,1.954,1.954,0,0,0-2.745,0,1.985,1.985,0,0,0,0,2.745Z" transform="translate(-0.249 -2.994)"/>
</svg>
