<svg xmlns="http://www.w3.org/2000/svg" width="20.899" height="44.979" viewBox="0 0 20.899 44.979">
  <defs>
    <style>
      .cls-1 {
        fill: #f8f8f8;
        fill-rule: evenodd;
      }
    </style>
  </defs>
  <path id="Path_70" data-name="Path 70" class="cls-1" d="M45.3,38.761V60.491a.6.6,0,0,0,.587.587h8.076a.6.6,0,0,0,.587-.587V38.369h5.824a.626.626,0,0,0,.587-.538l.489-6.607a.578.578,0,0,0-.587-.636H54.5v-4.7a1.985,1.985,0,0,1,2.007-2.007h4.5a.6.6,0,0,0,.587-.587V16.687a.6.6,0,0,0-.587-.587H53.376A8.084,8.084,0,0,0,45.3,24.176v6.412H41.287a.6.6,0,0,0-.587.587v6.656a.6.6,0,0,0,.587.587H45.3Z" transform="translate(-40.7 -16.1)"/>
</svg>
