<svg xmlns="http://www.w3.org/2000/svg" width="32" height="32" viewBox="0 0 32 32">
  <defs>
    <style>
      .cls-1 {
        fill-rule: evenodd;
      }
    </style>
  </defs>
  <g id="person" transform="translate(-4.5 -4.5)">
    <path id="Path_84" data-name="Path 84" class="cls-1" d="M33.833,36.5A2.612,2.612,0,0,0,36.5,33.833c0-2.667-2.667-10.667-16-10.667s-16,8-16,10.667A2.612,2.612,0,0,0,7.167,36.5ZM7.18,33.983v0Zm.045-.149H33.774l.038-.006.021-.006a7.12,7.12,0,0,0-2.219-4.437C29.876,27.647,26.6,25.833,20.5,25.833s-9.376,1.813-11.115,3.552a7.14,7.14,0,0,0-2.219,4.437Zm26.6.149v0ZM20.5,17.833A5.333,5.333,0,1,0,15.167,12.5,5.333,5.333,0,0,0,20.5,17.833Zm8-5.333a8,8,0,1,1-8-8A8,8,0,0,1,28.5,12.5Z"/>
  </g>
</svg>
