<svg id="telephone" xmlns="http://www.w3.org/2000/svg" width="36.737" height="36.733" viewBox="0 0 36.737 36.733">
  <defs>
    <style>
      .cls-1 {
        fill: #04f;
        fill-rule: evenodd;
      }
    </style>
  </defs>
  <path id="Path_62" data-name="Path 62" class="cls-1" d="M9.512,4.173a1.558,1.558,0,0,0-2.329-.145L4.807,6.4a3.925,3.925,0,0,0-1.031,4.06,40.333,40.333,0,0,0,9.569,15.175,40.337,40.337,0,0,0,15.174,9.568,3.929,3.929,0,0,0,4.06-1.031L34.955,31.8a1.558,1.558,0,0,0-.147-2.329l-5.294-4.119a1.558,1.558,0,0,0-1.332-.282l-5.025,1.256a4.006,4.006,0,0,1-3.806-1.054l-5.638-5.64a4.006,4.006,0,0,1-1.054-3.806L13.915,10.8a1.558,1.558,0,0,0-.282-1.332ZM5.453,2.3a4.006,4.006,0,0,1,5.995.374l4.116,5.294a4,4,0,0,1,.725,3.429l-1.256,5.027a1.558,1.558,0,0,0,.409,1.479l5.642,5.638a1.558,1.558,0,0,0,1.479.409l5.025-1.256a4.006,4.006,0,0,1,3.431.725l5.294,4.116a4.006,4.006,0,0,1,.374,5.995l-2.376,2.376a6.381,6.381,0,0,1-6.6,1.612A42.782,42.782,0,0,1,11.615,27.371,42.782,42.782,0,0,1,1.466,11.279,6.383,6.383,0,0,1,3.078,4.671L5.454,2.3Z" transform="translate(-1.124 -1.128)"/>
</svg>
