<svg xmlns="http://www.w3.org/2000/svg" xmlns:xlink="http://www.w3.org/1999/xlink" width="291" height="291" viewBox="0 0 291 291">
  <defs>
    <linearGradient id="linear-gradient" x1="0.606" y1="0.357" x2="0.403" y2="0.631" gradientUnits="objectBoundingBox">
      <stop offset="0" stop-color="#fff"/>
      <stop offset="1" stop-color="#fff" stop-opacity="0"/>
    </linearGradient>
    <linearGradient id="linear-gradient-2" x1="0.248" y1="0.209" x2="0.628" y2="0.648" xlink:href="#linear-gradient"/>
    <linearGradient id="linear-gradient-3" x1="0.592" y1="0.34" x2="0.423" y2="0.635" xlink:href="#linear-gradient"/>
    <linearGradient id="linear-gradient-5" x1="0.594" y1="0.323" x2="0.421" y2="0.649" xlink:href="#linear-gradient"/>
    <linearGradient id="linear-gradient-7" x1="0.621" y1="0.265" x2="0.304" y2="0.882" xlink:href="#linear-gradient"/>
  </defs>
  <g id="Discount" transform="translate(-1138 -4876)" style="isolation: isolate">
    <g id="_6" data-name="#6" transform="translate(1138 4876)">
      <rect id="Background" width="291" height="291" fill="rgba(0,68,255,0)"/>
      <g id="Illustration" transform="translate(50.123 27.379)">
        <path id="Path" d="M65.725.1l174.2,100.55L239.9,236.4,65.7,135.854Z" transform="translate(-49.288 -0.1)" opacity="0.1" fill="url(#linear-gradient)"/>
        <path id="Path-2" data-name="Path" d="M65.8.1,239.773,100.523v18.413L65.8,18.513Z" transform="translate(-49.363 -0.1)" opacity="0.2" fill="url(#linear-gradient-2)"/>
        <path id="Path-3" data-name="Path" d="M.9,242.9l45.032,25.986v12.486L.9,255.386Z" transform="translate(-0.9 -181.405)" fill="#f2994a" fill-rule="evenodd"/>
        <path id="Path-4" data-name="Path" d="M491.1,517.8l45.032,25.986v12.486L491.1,530.286Z" transform="translate(-366.945 -386.68)" fill="#f2c94c" fill-rule="evenodd"/>
        <path id="Path-5" data-name="Path" d="M374.5,584.2l87.886,50.731v37.712L374.5,621.912Z" transform="translate(-279.877 -436.263)" opacity="0.15" fill="url(#linear-gradient-3)"/>
        <path id="Path-6" data-name="Path" d="M408.1,567.4l87.886,50.731v37.712L408.1,605.112Z" transform="translate(-304.967 -423.718)" opacity="0.07" fill="url(#linear-gradient-3)"/>
        <path id="Path-7" data-name="Path" d="M400.2,629.3l13.246,7.649v12.486L400.2,641.786Z" transform="translate(-299.068 -469.94)" fill="#fff" opacity="0.15"/>
        <path id="Path-8" data-name="Path" d="M464.6,668.2l13.246,7.649v12.486L464.6,680.686Z" transform="translate(-347.157 -498.988)" fill="#fff" opacity="0.15"/>
        <path id="Path-9" data-name="Path" d="M529,704.7l13.246,7.649v12.486L529,717.161Z" transform="translate(-395.246 -526.244)" fill="#fff" opacity="0.15"/>
        <path id="Path-10" data-name="Path" d="M593.4,743.6l13.246,7.649v12.486L593.4,756.086Z" transform="translate(-443.336 -555.291)" fill="#fff" opacity="0.15"/>
        <path id="Path-11" data-name="Path" d="M112.2,201.6l99.942,57.7v4.255L112.2,205.88Z" transform="translate(-84.011 -150.565)" fill="#fff" opacity="0.15"/>
        <path id="Path-12" data-name="Path" d="M112.2,235.5l86.24,49.768v4.255L112.2,239.755Z" transform="translate(-84.011 -175.879)" fill="#fff" opacity="0.15"/>
        <path id="Path-13" data-name="Path" d="M112.2,269l73.373,42.347V315.6L112.2,273.255Z" transform="translate(-84.011 -200.895)" fill="#fff" opacity="0.15"/>
        <path id="Path-14" data-name="Path" d="M17.2,362.3l73.171,42.221v37.712L17.2,400.012Z" transform="translate(-13.072 -270.564)" opacity="0.15" fill="url(#linear-gradient-5)"/>
        <path id="Path-15" data-name="Path" d="M50.8,345.5l73.171,42.221v37.712L50.8,383.212Z" transform="translate(-38.162 -258.019)" opacity="0.07" fill="url(#linear-gradient-5)"/>
        <path id="Path-16" data-name="Path" d="M36.9,409.5l58.126,33.559v4.255L36.9,413.78Z" transform="translate(-27.782 -305.81)" fill="#fff" opacity="0.15"/>
        <path id="Path-17" data-name="Path" d="M36.9,443.4l46.552,26.872v4.255L36.9,447.655Z" transform="translate(-27.782 -331.124)" fill="#fff" opacity="0.15"/>
        <path id="Path-18" data-name="Path" d="M119.393,57.631c0,2.761-1.621,4.052-3.6,2.913s-3.6-4.306-3.6-7.041,1.621-4.052,3.6-2.913S119.393,54.9,119.393,57.631Z" transform="translate(-84.011 -37.495)" fill="#fff" opacity="0.2"/>
        <path id="Shape" d="M49.318,579.417c0,5.015-1.114,8.231-3.343,9.624s-5.217,1.013-8.966-1.165a23.72,23.72,0,0,1-8.966-9.194A26.989,26.989,0,0,1,24.7,565.209c0-5.015,1.114-8.231,3.343-9.624s5.217-1.013,8.966,1.165a23.893,23.893,0,0,1,8.966,9.194A26.921,26.921,0,0,1,49.318,579.417Zm-7.851-4.534a15.254,15.254,0,0,0-1.241-6.661,8.313,8.313,0,0,0-3.191-3.7c-1.342-.785-2.431-.785-3.267-.051-.785.785-1.19,2.533-1.19,5.243a16.21,16.21,0,0,0,1.19,6.686,8.217,8.217,0,0,0,3.267,3.723q1.938,1.14,3.191,0C41.036,579.367,41.467,577.594,41.467,574.884Zm21.4-1.925,9.65,5.572L45.342,618.421l-9.65-5.572Zm20.768,53.289c0,5.015-1.114,8.231-3.343,9.624s-5.217,1.013-8.966-1.165a23.72,23.72,0,0,1-8.966-9.194,26.989,26.989,0,0,1-3.343-13.474c0-5.015,1.114-8.231,3.343-9.624s5.217-1.013,8.966,1.165a23.72,23.72,0,0,1,8.966,9.194A26.989,26.989,0,0,1,83.637,626.248Zm-7.851-4.534a15.254,15.254,0,0,0-1.241-6.661,8.313,8.313,0,0,0-3.191-3.7c-1.342-.785-2.431-.785-3.267-.051-.785.785-1.19,2.533-1.19,5.243a16.21,16.21,0,0,0,1.19,6.686,8.218,8.218,0,0,0,3.267,3.723q1.938,1.14,3.191,0C75.355,626.222,75.785,624.449,75.785,621.714Z" transform="translate(-18.672 -414.283)" opacity="0.3" fill="url(#linear-gradient-7)"/>
      </g>
    </g>
  </g>
</svg>
