<svg xmlns="http://www.w3.org/2000/svg" width="32.293" height="35" viewBox="0 0 32.293 35">
  <defs>
    <style>
      .cls-1 {
        fill: #707070;
      }
    </style>
  </defs>
  <path id="moon" class="cls-1" d="M17.291,6.625A20.293,20.293,0,0,0,32.9,31.116,14.96,14.96,0,0,1,22.162,35.68c-.185,0-.375.007-.562,0A14.934,14.934,0,0,1,17.292,6.625m1.988-3.25a1.349,1.349,0,0,0-.236.022A17.629,17.629,0,0,0,21.5,38.371c.22.008.442,0,.659,0a17.6,17.6,0,0,0,14.408-7.477,1.359,1.359,0,0,0-1.054-2.107A17.608,17.608,0,0,1,20.505,5.233,1.366,1.366,0,0,0,19.28,3.375Z" transform="translate(-4.501 -3.375)"/>
</svg>
