<svg xmlns="http://www.w3.org/2000/svg" width="37.25" height="37.25" viewBox="0 0 37.25 37.25">
  <defs>
    <style>
      .cls-1 {
        fill: none;
        stroke: #f8f8f8;
        stroke-linecap: round;
        stroke-miterlimit: 10;
        stroke-width: 2.25px;
      }
    </style>
  </defs>
  <g id="sunny-outline" transform="translate(-2.25 -2.25)">
    <path id="Path_3" data-name="Path 3" class="cls-1" d="M18,3.375V7.413" transform="translate(2.875 0)"/>
    <path id="Path_4" data-name="Path 4" class="cls-1" d="M18,29.25v4.038" transform="translate(2.875 5.087)"/>
    <path id="Path_5" data-name="Path 5" class="cls-1" d="M28.811,7.658l-2.855,2.855" transform="translate(4.439 0.842)"/>
    <path id="Path_6" data-name="Path 6" class="cls-1" d="M10.514,25.955,7.659,28.81" transform="translate(0.842 4.439)"/>
    <path id="Path_7" data-name="Path 7" class="cls-1" d="M33.288,18H29.25" transform="translate(5.087 2.875)"/>
    <path id="Path_8" data-name="Path 8" class="cls-1" d="M7.413,18H3.375" transform="translate(0 2.875)"/>
    <path id="Path_9" data-name="Path 9" class="cls-1" d="M28.811,28.811l-2.855-2.855" transform="translate(4.439 4.439)"/>
    <path id="Path_10" data-name="Path 10" class="cls-1" d="M10.514,10.514,7.659,7.659" transform="translate(0.842 0.842)"/>
    <path id="Path_11" data-name="Path 11" class="cls-1" d="M25.837,19.106a6.731,6.731,0,1,1-6.731-6.731A6.731,6.731,0,0,1,25.837,19.106Z" transform="translate(1.769 1.769)"/>
  </g>
</svg>
